<?xml version="1.0" encoding="UTF-8" standalone="no"?>
<svg width="13px" height="20px" viewBox="0 0 13 20" version="1.1" xmlns="http://www.w3.org/2000/svg" xmlns:xlink="http://www.w3.org/1999/xlink" xmlns:sketch="http://www.bohemiancoding.com/sketch/ns">
    <!-- Generator: Sketch 3.0.2 (7799) - http://www.bohemiancoding.com/sketch -->
    <title>Slice 1</title>
    <description>Created with Sketch.</description>
    <defs></defs>
    <g id="Page-1" stroke="none" stroke-width="1" fill="none" fill-rule="evenodd" sketch:type="MSPage">
        <path d="M5.06455633,5.39106119 L7.42421599,4.70198 L10.2289172,10.1662124 L10.2289172,11.293692 C10.2289172,11.293692 10.3389123,12.764863 10.5772179,13.9735641 C10.6650625,14.4191176 10.7703422,14.8290062 10.8939744,15.1163934 C11.4879359,16.4970773 12.8903813,18.3896488 12.8903813,18.3896488 C12.8903813,18.3896488 13.0729165,19.4574503 12.4454569,19.6364292 C11.8179974,19.8154081 11.3396067,19.4510845 11.3396067,19.4510845 C11.3396067,19.4510845 9.7658786,17.086921 9.15383536,15.7893347 C8.71143243,14.8514009 8.17626816,12.7445244 8.17626816,12.7445244 C8.17626816,12.7445244 7.54998196,12.7661063 7.42421586,12.9123262 C6.96971303,13.4407464 6.43546137,14.7684447 6.43546137,14.7684447 L5.30706177,19.4510842 C5.30706177,19.4510842 5.01925702,20.0732425 4.29582782,20.0732425 C3.57239861,20.0732425 3.36541195,19.162598 3.36541195,19.162598 L4.29582772,14.3390298 L6.4354612,10.1662124 L5.30706154,8.31394685 L4.83397181,9.4226617 L1.05490451,11.1155237 C1.05490451,11.1155237 0.989637123,11.0976715 0.896577168,11.0609435 C0.702915663,10.9845112 0.388892114,10.826333 0.292245365,10.5771846 C0.142316694,10.190679 0.419415495,9.64807594 0.419415495,9.64807594 L3.70305274,8.12449372 L5.06455633,5.39106119 Z" id="Path-5" fill="#000000" sketch:type="MSShapeGroup"></path>
        <path d="M7.98712384,4.54398148 L10.4680265,9.49942111 C10.4680265,9.49942111 11.1383787,9.18068216 11.4735548,9.02131268 C11.6458055,8.93941098 11.9903067,8.77560757 11.9903067,8.77560757 L9.71368634,3.89438658 L7.98712384,4.54398148 Z" id="Path-6" fill="#000000" sketch:type="MSShapeGroup"></path>
        <circle id="Oval-1" fill="#000000" sketch:type="MSShapeGroup" cx="5" cy="2.80004883" r="2"></circle>
    </g>
</svg>