
<svg contentScriptType="text/ecmascript" width="12.0"
     xmlns:xlink="http://www.w3.org/1999/xlink" zoomAndPan="magnify"
     xmlns:sodipodi="http://sodipodi.sourceforge.net/DTD/sodipodi-0.dtd"
     contentStyleType="text/css" height="12.0" viewBox="-29 1170 12 12"
     preserveAspectRatio="xMidYMid meet" xmlns="http://www.w3.org/2000/svg"
     xmlns:inkscape="http://www.inkscape.org/namespaces/inkscape" version="1.0">
    <style type="text/css">
        .elclass{font-size:medium;font-style:normal;font-variant:normal;font-weight:normal;font-stretch:normal;text-indent:0;text-align:start;text-decoration:none;line-height:normal;letter-spacing:normal;word-spacing:normal;text-transform:none;direction:ltr;block-progression:tb;writing-mode:lr-tb;text-anchor:start;baseline-shift:baseline;color:#000000;fill:#444444;fill-opacity:1;fill-rule:nonzero;stroke:none;stroke-width:2;marker:none;visibility:visible;display:inline;overflow:visible;enable-background:accumulate;font-family:Sans;-inkscape-font-specification:Sans}
    </style>
    <g inkscape:export-xdpi="89.996864" id="triangle-12"
       inkscape:label="triangle-12" inkscape:export-ydpi="89.996864">
        <g id="g21914">
            <path sodipodi:nodetypes="cccsccsccc" id="path17844"
                  d="m -23.5,1172.3622 c -0.25,0 -0.363045,0.1197 -0.4375,0.25 l -4,7 c -0.04405,0.077 -0.0625,0.1637 -0.0625,0.25 0,0.375 0.25,0.5001 0.5,0.5 l 8,0 c 0.25,10e-5 0.5,-0.125 0.5,-0.5 0,-0.086 -0.01845,-0.1728 -0.0625,-0.25 l -4,-7 c -0.07446,-0.1303 -0.1875,-0.25 -0.4375,-0.25 z"
                  inkscape:connector-curvature="0" class="st0 elclass"/>
            <path sodipodi:nodetypes="cccsccsccc"
                  inkscape:connector-curvature="0"
                  d="m -23.5,1172.3622 c -0.25,0 -0.363045,0.1197 -0.4375,0.25 l -4,7 c -0.04405,0.077 -0.0625,0.1637 -0.0625,0.25 0,0.375 0.25,0.5001 0.5,0.5 l 8,0 c 0.25,10e-5 0.5,-0.125 0.5,-0.5 0,-0.086 -0.01845,-0.1728 -0.0625,-0.25 l -4,-7 c -0.07446,-0.1303 -0.1875,-0.25 -0.4375,-0.25 z"
                  id="path11349-6" class="st0 elclass"/>
        </g>
        <rect x="-30" width="11.999998" id="rect22055" height="12.000007"
              y="1170.3622"
              style="opacity:0.5;color:#000000;fill:none;stroke:none;stroke-width:2;marker:none;visibility:visible;display:inline;overflow:visible;enable-background:accumulate"/>
    </g>
</svg>