
<svg contentScriptType="text/ecmascript" width="18.0"
     xmlns:xlink="http://www.w3.org/1999/xlink" zoomAndPan="magnify"
     xmlns:sodipodi="http://sodipodi.sourceforge.net/DTD/sodipodi-0.dtd"
     contentStyleType="text/css" height="18.0" viewBox="186 1218 18 18"
     preserveAspectRatio="xMidYMid meet" xmlns="http://www.w3.org/2000/svg"
     xmlns:inkscape="http://www.inkscape.org/namespaces/inkscape" version="1.0">
    <style type="text/css">
        .elclass{font-size:medium;font-style:normal;font-variant:normal;font-weight:normal;font-stretch:normal;text-indent:0;text-align:start;text-decoration:none;line-height:normal;letter-spacing:normal;word-spacing:normal;text-transform:none;direction:ltr;block-progression:tb;writing-mode:lr-tb;text-anchor:start;baseline-shift:baseline;color:#000000;fill:#444444;fill-opacity:1;fill-rule:nonzero;stroke:none;stroke-width:2;marker:none;visibility:visible;display:inline;overflow:visible;enable-background:accumulate;font-family:Sans;-inkscape-font-specification:Sans}
    </style>
    <g inkscape:export-xdpi="89.996864" id="campsite-18"
       inkscape:label="campsite-18" inkscape:export-ydpi="89.996864">
        <g id="g21677" transform="translate(-1,-3)">
            <path sodipodi:nodetypes="cccsccccccccc"
                  d="m 196.5,1225.3626 c -0.36111,-10e-5 -0.5244,0.1729 -0.63194,0.3611 l -3.86806,8.1385 -1.5,0 c -0.5,0 -0.5,0.7778 -0.5,0.7778 0,0 0,0.7222 0.5,0.7222 l 12,0 c 0.5,0 0.5,-0.7222 0.5,-0.7222 0,0 0,-0.7777 -0.5,-0.7778 l -1.5,-4e-4 -3.86806,-8.1385 c -0.10754,-0.1882 -0.27083,-0.3612 -0.63194,-0.3611 z"
                  id="path12873" inkscape:connector-curvature="0"
                  style="font-size:medium;font-style:normal;font-variant:normal;font-weight:normal;font-stretch:normal;text-indent:0;text-align:start;text-decoration:none;line-height:normal;letter-spacing:normal;word-spacing:normal;text-transform:none;direction:ltr;block-progression:tb;writing-mode:lr-tb;text-anchor:start;baseline-shift:baseline;opacity:0.3;color:#000000;fill:#ffffff;stroke:#ffffff;stroke-width:2;stroke-linecap:round;stroke-linejoin:round;stroke-miterlimit:4;stroke-opacity:1;stroke-dasharray:none;stroke-dashoffset:0;marker:none;visibility:visible;display:inline;overflow:visible;enable-background:accumulate;font-family:Sans;-inkscape-font-specification:Sans"/>
            <path sodipodi:nodetypes="cccsccccccccccccc"
                  inkscape:connector-curvature="0" id="path11349-0-7"
                  d="m 196.5,1225.3626 c -0.36111,-10e-5 -0.5244,0.1729 -0.63194,0.3611 l -3.86806,8.1385 -1.5,0 c -0.5,0 -0.5,0.7778 -0.5,0.7778 0,0 0,0.7222 0.5,0.7222 l 12,0 c 0.5,0 0.5,-0.7222 0.5,-0.7222 0,0 0,-0.7777 -0.5,-0.7778 l -1.5,-4e-4 -3.86806,-8.1385 c -0.10754,-0.1882 -0.27083,-0.3612 -0.63194,-0.3611 z m 0,2.9996 2.5,5.5 -5,0 z"
                  class="st0 elclass"/>
        </g>
        <rect x="185.99997" width="18.000017" height="18.000031" y="1218.3622"
              id="rect22290"
              style="opacity:0.5;color:#000000;fill:none;stroke:none;stroke-width:2;marker:none;visibility:visible;display:inline;overflow:visible;enable-background:accumulate"/>
    </g>
</svg>